{
	"asset":{
		"generator":"Created using the official Cinema 4D glTF Exporter 1.000x284978",
		"version":"2.0"
	},
	"scenes":[{
		"nodes":[0,
		3,
		4,
		5,
		6,
		7,
		8,
		9,
		10,
		11,
		12,
		13]
	}],
	"nodes":[{
		"name":"Statue of Liberty",
		"translation":[185.60482788085938,
		-0.05984920263290405,
		2.010345935821533],
		"rotation":[0.0,
		-0.7071067690849304,
		0.0,
		0.7071067690849304],
		"scale":[1.0,
		1.0,
		1.0],
		"mesh":0,
		"children":[1,
		2]
	},
	{
		"name":"Base",
		"translation":[0.0,
		9.530977249145508,
		1.230981864937242e-16],
		"rotation":[0.0,
		0.0,
		0.0,
		-1.0],
		"scale":[1.0,
		1.0,
		1.0],
		"mesh":1
	},
	{
		"name":"Door",
		"translation":[0.008834351785480976,
		0.9992488622665405,
		0.009239417500793934],
		"rotation":[0.0,
		0.0,
		1.2246468525851679e-16,
		1.0],
		"scale":[1.0,
		1.0,
		1.0],
		"mesh":2
	},
	{
		"name":"Christ the Redeemer",
		"translation":[153.88009643554688,
		-0.0891793817281723,
		-5.967164039611816],
		"rotation":[0.0,
		-0.7071067690849304,
		0.0,
		-0.7071067690849304],
		"scale":[1.0,
		1.0,
		1.0],
		"mesh":3
	},
	{
		"name":"The Discus Thrower",
		"translation":[-123.6478271484375,
		0.05524741858243942,
		0.6930378079414368],
		"rotation":[0.0,
		0.0,
		0.0,
		-1.0],
		"scale":[1.0,
		1.0,
		1.0],
		"mesh":4
	},
	{
		"name":"The Thinker",
		"translation":[-190.53933715820313,
		0.0,
		0.06463716179132462],
		"rotation":[0.0,
		0.0,
		0.0,
		-1.0],
		"scale":[1.0,
		1.0,
		1.0],
		"mesh":5
	},
	{
		"name":"David",
		"translation":[-158.5358123779297,
		7.105427357601002e-15,
		-0.11316004395484925],
		"rotation":[0.0,
		0.0,
		0.0,
		-1.0],
		"scale":[1.0,
		1.0,
		1.0],
		"mesh":6
	},
	{
		"name":"Venus Di Milo",
		"translation":[-92.5562973022461,
		2.220446049250313e-16,
		5.507951736450195],
		"rotation":[0.0,
		0.0,
		0.0,
		-1.0],
		"scale":[1.0,
		1.0,
		1.0],
		"mesh":7
	},
	{
		"name":"Moai",
		"translation":[-60.346439361572269,
		-7.105427357601002e-15,
		-0.0000029802322387695314],
		"rotation":[0.0,
		0.0,
		0.0,
		-1.0],
		"scale":[1.0,
		1.0,
		1.0],
		"mesh":8
	},
	{
		"name":"MotherLand Calls",
		"translation":[-26.418996810913087,
		34.440303802490237,
		0.9269581437110901],
		"rotation":[0.0,
		0.0,
		0.0,
		-1.0],
		"scale":[1.0,
		1.0,
		1.0],
		"mesh":9
	},
	{
		"name":"Manneken Pis",
		"translation":[0.40408265590667727,
		0.0030412243213504555,
		1.5968583822250367],
		"rotation":[0.0,
		0.0,
		0.0,
		-1.0],
		"scale":[1.0,
		1.0,
		1.0],
		"mesh":10
	},
	{
		"name":"NIKE OF SAMOTHRACE",
		"translation":[27.86692237854004,
		0.0016583191463723779,
		0.04545707628130913],
		"rotation":[0.0,
		0.0,
		0.0,
		-1.0],
		"scale":[1.0,
		1.0,
		1.0],
		"mesh":11
	},
	{
		"name":"Pieta",
		"translation":[76.47636413574219,
		0.017069611698389055,
		-0.1719992607831955],
		"rotation":[0.0,
		0.0,
		0.0,
		-1.0],
		"scale":[1.0,
		1.0,
		1.0],
		"mesh":12
	},
	{
		"name":"The Great Sphinx",
		"translation":[121.9651107788086,
		3.552713678800501e-15,
		-1.4842445850372315],
		"rotation":[0.0,
		0.0,
		0.0,
		-1.0],
		"scale":[1.0,
		1.0,
		1.0],
		"mesh":13
	}],
	"meshes":[{
		"name":"Statue of Liberty",
		"primitives":[{
			"attributes":{
				"POSITION":1
			},
			"indices":0,
			"material":0
		}]
	},
	{
		"name":"Base",
		"primitives":[{
			"attributes":{
				"POSITION":3
			},
			"indices":2,
			"material":0
		}]
	},
	{
		"name":"Door",
		"primitives":[{
			"attributes":{
				"POSITION":5
			},
			"indices":4,
			"material":0
		}]
	},
	{
		"name":"Christ the Redeemer",
		"primitives":[{
			"attributes":{
				"POSITION":7,
				"TEXCOORD_0":8
			},
			"indices":6,
			"material":0
		}]
	},
	{
		"name":"The Discus Thrower",
		"primitives":[{
			"attributes":{
				"POSITION":10
			},
			"indices":9,
			"material":0
		}]
	},
	{
		"name":"The Thinker",
		"primitives":[{
			"attributes":{
				"POSITION":12
			},
			"indices":11,
			"material":0
		}]
	},
	{
		"name":"David",
		"primitives":[{
			"attributes":{
				"POSITION":14
			},
			"indices":13,
			"material":0
		}]
	},
	{
		"name":"Venus Di Milo",
		"primitives":[{
			"attributes":{
				"POSITION":16
			},
			"indices":15,
			"material":0
		}]
	},
	{
		"name":"Moai",
		"primitives":[{
			"attributes":{
				"POSITION":18
			},
			"indices":17,
			"material":0
		}]
	},
	{
		"name":"MotherLand Calls",
		"primitives":[{
			"attributes":{
				"POSITION":20
			},
			"indices":19,
			"material":0
		}]
	},
	{
		"name":"Manneken Pis",
		"primitives":[{
			"attributes":{
				"POSITION":22
			},
			"indices":21,
			"material":0
		}]
	},
	{
		"name":"NIKE OF SAMOTHRACE",
		"primitives":[{
			"attributes":{
				"POSITION":24
			},
			"indices":23,
			"material":0
		}]
	},
	{
		"name":"Pieta",
		"primitives":[{
			"attributes":{
				"POSITION":26
			},
			"indices":25,
			"material":0
		}]
	},
	{
		"name":"The Great Sphinx",
		"primitives":[{
			"attributes":{
				"POSITION":28
			},
			"indices":27,
			"material":0
		}]
	}],
	"accessors":[{
		"componentType":5123,
		"bufferView":0,
		"byteOffset":0,
		"type":"SCALAR",
		"count":14772,
		"min":[0],
		"max":[2457]
	},
	{
		"componentType":5126,
		"bufferView":1,
		"byteOffset":0,
		"type":"VEC3",
		"count":2458,
		"min":[-6.5230560302734379,
		20.253681182861329,
		-6.5230560302734379],
		"max":[6.5230560302734379,
		60.427406311035159,
		6.5230560302734379]
	},
	{
		"componentType":5123,
		"bufferView":2,
		"byteOffset":0,
		"type":"SCALAR",
		"count":25452,
		"min":[0],
		"max":[4555]
	},
	{
		"componentType":5126,
		"bufferView":3,
		"byteOffset":0,
		"type":"VEC3",
		"count":4556,
		"min":[-11.007641792297364,
		-9.530977249145508,
		-11.007641792297364],
		"max":[11.007641792297364,
		10.72270393371582,
		11.007641792297364]
	},
	{
		"componentType":5123,
		"bufferView":4,
		"byteOffset":0,
		"type":"SCALAR",
		"count":5280,
		"min":[0],
		"max":[887]
	},
	{
		"componentType":5126,
		"bufferView":5,
		"byteOffset":0,
		"type":"VEC3",
		"count":888,
		"min":[-9.969633102416993,
		-1.0149376392364503,
		-9.976905822753907],
		"max":[9.969633102416993,
		1.0149376392364503,
		9.976905822753907]
	},
	{
		"componentType":5123,
		"bufferView":6,
		"byteOffset":0,
		"type":"SCALAR",
		"count":12021,
		"min":[0],
		"max":[3480]
	},
	{
		"componentType":5126,
		"bufferView":7,
		"byteOffset":0,
		"type":"VEC3",
		"count":3481,
		"min":[-4.802469253540039,
		2.309263806517031e-15,
		-20.898372650146486],
		"max":[4.802469253540039,
		49.540775299072269,
		17.822208404541017]
	},
	{
		"componentType":5126,
		"bufferView":7,
		"byteOffset":12,
		"type":"VEC2",
		"count":3481,
		"min":[-0.16846823692321778,
		-0.23572281002998353],
		"max":[1.1684682369232178,
		1.2357227802276612]
	},
	{
		"componentType":5123,
		"bufferView":8,
		"byteOffset":0,
		"type":"SCALAR",
		"count":3066,
		"min":[0],
		"max":[505]
	},
	{
		"componentType":5126,
		"bufferView":9,
		"byteOffset":0,
		"type":"VEC3",
		"count":506,
		"min":[-17.798763275146486,
		-0.06630314141511917,
		-8.652948379516602],
		"max":[17.798763275146486,
		57.082157135009769,
		8.319259643554688]
	},
	{
		"componentType":5123,
		"bufferView":10,
		"byteOffset":0,
		"type":"SCALAR",
		"count":2892,
		"min":[0],
		"max":[474]
	},
	{
		"componentType":5126,
		"bufferView":11,
		"byteOffset":0,
		"type":"VEC3",
		"count":475,
		"min":[-13.387514114379883,
		0.00131203792989254,
		-20.6491756439209],
		"max":[13.387514114379883,
		55.40857696533203,
		20.6491756439209]
	},
	{
		"componentType":5123,
		"bufferView":12,
		"byteOffset":0,
		"type":"SCALAR",
		"count":3450,
		"min":[0],
		"max":[566]
	},
	{
		"componentType":5126,
		"bufferView":13,
		"byteOffset":0,
		"type":"VEC3",
		"count":567,
		"min":[-10.405085563659668,
		0.008482503704726696,
		-6.8863654136657719],
		"max":[10.405085563659668,
		55.01954650878906,
		6.8863654136657719]
	},
	{
		"componentType":5123,
		"bufferView":14,
		"byteOffset":0,
		"type":"SCALAR",
		"count":7500,
		"min":[0],
		"max":[1251]
	},
	{
		"componentType":5126,
		"bufferView":15,
		"byteOffset":0,
		"type":"VEC3",
		"count":1252,
		"min":[-5.049599647521973,
		0.0011520000407472253,
		-10.729575157165528],
		"max":[11.195865631103516,
		50.663536071777347,
		4.790246486663818]
	},
	{
		"componentType":5123,
		"bufferView":16,
		"byteOffset":0,
		"type":"SCALAR",
		"count":2388,
		"min":[0],
		"max":[399]
	},
	{
		"componentType":5126,
		"bufferView":17,
		"byteOffset":0,
		"type":"VEC3",
		"count":400,
		"min":[-11.278465270996094,
		-0.01263732835650444,
		-8.837655067443848],
		"max":[11.278465270996094,
		47.34658432006836,
		8.837655067443848]
	},
	{
		"componentType":5123,
		"bufferView":18,
		"byteOffset":0,
		"type":"SCALAR",
		"count":9336,
		"min":[0],
		"max":[1538]
	},
	{
		"componentType":5126,
		"bufferView":19,
		"byteOffset":0,
		"type":"VEC3",
		"count":1539,
		"min":[-14.040806770324707,
		-34.43726348876953,
		-11.54001522064209],
		"max":[14.040806770324707,
		34.43726348876953,
		11.54001522064209]
	},
	{
		"componentType":5123,
		"bufferView":20,
		"byteOffset":0,
		"type":"SCALAR",
		"count":2127,
		"min":[0],
		"max":[357]
	},
	{
		"componentType":5126,
		"bufferView":21,
		"byteOffset":0,
		"type":"VEC3",
		"count":358,
		"min":[-12.933234214782715,
		0.0,
		-8.024609565734864],
		"max":[8.091923713684082,
		46.037654876708987,
		8.024609565734864]
	},
	{
		"componentType":5123,
		"bufferView":22,
		"byteOffset":0,
		"type":"SCALAR",
		"count":6324,
		"min":[0],
		"max":[1060]
	},
	{
		"componentType":5126,
		"bufferView":23,
		"byteOffset":0,
		"type":"VEC3",
		"count":1061,
		"min":[-9.141162872314454,
		-0.0010497160255908967,
		-29.974966049194337],
		"max":[23.824277877807618,
		49.62328338623047,
		6.792818546295166]
	},
	{
		"componentType":5123,
		"bufferView":24,
		"byteOffset":0,
		"type":"SCALAR",
		"count":9336,
		"min":[0],
		"max":[1596]
	},
	{
		"componentType":5126,
		"bufferView":25,
		"byteOffset":0,
		"type":"VEC3",
		"count":1597,
		"min":[-25.412063598632814,
		-0.010854197666049004,
		-17.27354621887207],
		"max":[25.412063598632814,
		48.905540466308597,
		17.27354621887207]
	},
	{
		"componentType":5123,
		"bufferView":26,
		"byteOffset":0,
		"type":"SCALAR",
		"count":2271,
		"min":[0],
		"max":[380]
	},
	{
		"componentType":5126,
		"bufferView":27,
		"byteOffset":0,
		"type":"VEC3",
		"count":381,
		"min":[-8.041539192199707,
		-3.552713678800501e-15,
		-29.876935958862306],
		"max":[8.041539192199707,
		28.241817474365236,
		29.876935958862306]
	}],
	"bufferViews":[{
		"buffer":0,
		"byteOffset":0,
		"byteLength":29544,
		"target":34963
	},
	{
		"buffer":0,
		"byteOffset":29544,
		"byteLength":29496,
		"target":34962
	},
	{
		"buffer":1,
		"byteOffset":0,
		"byteLength":50904,
		"target":34963
	},
	{
		"buffer":1,
		"byteOffset":50904,
		"byteLength":54672,
		"target":34962
	},
	{
		"buffer":2,
		"byteOffset":0,
		"byteLength":10560,
		"target":34963
	},
	{
		"buffer":2,
		"byteOffset":10560,
		"byteLength":10656,
		"target":34962
	},
	{
		"buffer":3,
		"byteOffset":0,
		"byteLength":24042,
		"target":34963
	},
	{
		"buffer":3,
		"byteOffset":24044,
		"byteLength":69620,
		"target":34962,
		"byteStride":20
	},
	{
		"buffer":4,
		"byteOffset":0,
		"byteLength":6132,
		"target":34963
	},
	{
		"buffer":4,
		"byteOffset":6132,
		"byteLength":6072,
		"target":34962
	},
	{
		"buffer":5,
		"byteOffset":0,
		"byteLength":5784,
		"target":34963
	},
	{
		"buffer":5,
		"byteOffset":5784,
		"byteLength":5700,
		"target":34962
	},
	{
		"buffer":6,
		"byteOffset":0,
		"byteLength":6900,
		"target":34963
	},
	{
		"buffer":6,
		"byteOffset":6900,
		"byteLength":6804,
		"target":34962
	},
	{
		"buffer":7,
		"byteOffset":0,
		"byteLength":15000,
		"target":34963
	},
	{
		"buffer":7,
		"byteOffset":15000,
		"byteLength":15024,
		"target":34962
	},
	{
		"buffer":8,
		"byteOffset":0,
		"byteLength":4776,
		"target":34963
	},
	{
		"buffer":8,
		"byteOffset":4776,
		"byteLength":4800,
		"target":34962
	},
	{
		"buffer":9,
		"byteOffset":0,
		"byteLength":18672,
		"target":34963
	},
	{
		"buffer":9,
		"byteOffset":18672,
		"byteLength":18468,
		"target":34962
	},
	{
		"buffer":10,
		"byteOffset":0,
		"byteLength":4254,
		"target":34963
	},
	{
		"buffer":10,
		"byteOffset":4256,
		"byteLength":4296,
		"target":34962
	},
	{
		"buffer":11,
		"byteOffset":0,
		"byteLength":12648,
		"target":34963
	},
	{
		"buffer":11,
		"byteOffset":12648,
		"byteLength":12732,
		"target":34962
	},
	{
		"buffer":12,
		"byteOffset":0,
		"byteLength":18672,
		"target":34963
	},
	{
		"buffer":12,
		"byteOffset":18672,
		"byteLength":19164,
		"target":34962
	},
	{
		"buffer":13,
		"byteOffset":0,
		"byteLength":4542,
		"target":34963
	},
	{
		"buffer":13,
		"byteOffset":4544,
		"byteLength":4572,
		"target":34962
	}],
	"buffers":[{
		"uri":"data:application/octet-stream;base64,",
		"byteLength":59040
	},
	{
		"uri":"data:application/octet-stream;base64,",
		"byteLength":105576
	},
	{
		"uri":"data:application/octet-stream;base64,",
		"byteLength":21216
	},
	{
		"uri":"data:application/octet-stream;base64,",
		"byteLength":93664
	},
	{
		"uri":"data:application/octet-stream;base64,",
		"byteLength":12204
	},
	{
		"uri":"data:application/octet-stream;base64,",
		"byteLength":11484
	},
	{
		"uri":"data:application/octet-stream;base64,",
		"byteLength":13704
	},
	{
		"uri":"data:application/octet-stream;base64,",
		"byteLength":30024
	},
	{
		"uri":"data:application/octet-stream;base64,",
		"byteLength":9576
	},
	{
		"uri":"data:application/octet-stream;base64,",
		"byteLength":37140
	},
	{
		"uri":"data:application/octet-stream;base64,",
		"byteLength":8552
	},
	{
		"uri":"data:application/octet-stream;base64,",
		"byteLength":25380
	},
	{
		"uri":"data:application/octet-stream;base64,",
		"byteLength":37836
	},
	{
		"uri":"data:application/octet-stream;base64,",
		"byteLength":9116
	}],
	"materials":[{
		"pbrMetallicRoughness":{
			"baseColorFactor":[0.7176470756530762,
			0.7176470756530762,
			0.7647058963775635,
			1.0],
			"metallicFactor":0.0,
			"roughnessFactor":0.5
		},
		"emissiveFactor":[0.0,
		0.0,
		0.0],
		"alphaMode":"OPAQUE",
		"doubleSided":false,
		"name":"Material"
	}]
}